<?xml version="1.0" encoding="iso-8859-1"?>
<!-- Generator: Adobe Illustrator 19.1.0, SVG Export Plug-In . SVG Version: 6.00 Build 0)  -->
<svg xmlns="http://www.w3.org/2000/svg" xmlns:xlink="http://www.w3.org/1999/xlink" version="1.1" id="Capa_1" x="0px" y="0px" viewBox="0 0 64.26 64.26" style="enable-background:new 0 0 64.26 64.26;" xml:space="preserve" width="512px" height="512px">
<g>
	<g>
	</g>
	<g>
	</g>
	<g>
	</g>
	<g>
	</g>
	<g>
	</g>
	<g>
	</g>
	<g>
	</g>
	<g>
	</g>
	<g>
	</g>
	<g>
	</g>
	<g>
	</g>
	<g>
	</g>
	<g>
	</g>
	<g>
	</g>
	<g>
	</g>
</g>
<g>
	<path d="M56.806,40.576L64.26,8.63H11.512l-0.582-8H0v2h9.07l3.933,54.073l0.001,0c0.04,3.826,3.162,6.927,6.996,6.927   c3.519,0,6.432-2.613,6.92-6h10.16c0.488,3.387,3.401,6,6.92,6c3.859,0,7-3.14,7-7s-3.141-7-7-7c-3.519,0-6.432,2.613-6.92,6H26.92   c-0.488-3.387-3.401-6-6.92-6c-2.132,0-4.042,0.961-5.327,2.47l-0.621-8.541L56.806,40.576z M61.74,10.63l-6.546,28.054   l-41.287,2.88l-2.25-30.934H61.74z M44,51.63c2.757,0,5,2.243,5,5s-2.243,5-5,5s-5-2.243-5-5S41.243,51.63,44,51.63z M20,51.63   c2.757,0,5,2.243,5,5s-2.243,5-5,5s-5-2.243-5-5S17.243,51.63,20,51.63z" fill="#7e807e"/>
	<path d="M36,35.63h2l-1.8,2.4l1.7,1.2l3.1-4v-1.2l-3.1-4l-1.65,1.2l1.75,2.4h-2c-3.942,0-7-4.3-7-8h-2   C27,30.351,30.849,35.63,36,35.63z" fill="#7e807e"/>
	<path d="M37.8,20.03l-1.8-2.4h2c3.942,0,7,4.3,7,8h2c0-4.721-3.849-10-9-10h-2l1.8-2.4l-1.7-1.2l-3.1,4v1.2l3.1,4L37.8,20.03z" fill="#7e807e"/>
</g>
<g>
</g>
<g>
</g>
<g>
</g>
<g>
</g>
<g>
</g>
<g>
</g>
<g>
</g>
<g>
</g>
<g>
</g>
<g>
</g>
<g>
</g>
<g>
</g>
<g>
</g>
<g>
</g>
<g>
</g>
</svg>
